<svg width="100" height="100" viewBox="0 0 100 100" fill="none" xmlns="http://www.w3.org/2000/svg">
<rect width="100" height="100" rx="50" fill="black"/>
<path d="M30.2188 54.6172L33.6641 36.4062H38.9199L33.2422 62H27.9336L23.7676 44.8789L19.6016 62H14.293L8.61523 36.4062H13.8711L17.334 54.582L21.5527 36.4062H26.0176L30.2188 54.6172ZM47.6626 62.3516C44.8735 62.3516 42.6001 61.4961 40.8423 59.7852C39.0962 58.0742 38.2231 55.7949 38.2231 52.9473V52.4551C38.2231 50.5449 38.5923 48.8398 39.3305 47.3398C40.0688 45.8281 41.1118 44.668 42.4595 43.8594C43.8188 43.0391 45.3657 42.6289 47.1001 42.6289C49.7016 42.6289 51.7466 43.4492 53.2348 45.0898C54.7348 46.7305 55.4848 49.0566 55.4848 52.0684V54.1426H43.3735C43.5376 55.3848 44.0298 56.3809 44.8501 57.1309C45.6821 57.8809 46.7309 58.2559 47.9966 58.2559C49.9536 58.2559 51.4829 57.5469 52.5845 56.1289L55.0805 58.9238C54.3188 60.002 53.2876 60.8457 51.9868 61.4551C50.686 62.0527 49.2446 62.3516 47.6626 62.3516ZM47.0825 46.7422C46.0747 46.7422 45.2544 47.082 44.6216 47.7617C44.0005 48.4414 43.602 49.4141 43.4263 50.6797H50.4927V50.2754C50.4692 49.1504 50.1645 48.2832 49.5786 47.6738C48.9927 47.0527 48.1606 46.7422 47.0825 46.7422ZM63.7241 62V36.4062H71.5991C73.8491 36.4062 75.8588 36.916 77.6284 37.9355C79.4096 38.9434 80.7983 40.3848 81.7944 42.2598C82.7905 44.123 83.2885 46.2441 83.2885 48.623V49.8008C83.2885 52.1797 82.7963 54.2949 81.812 56.1465C80.8393 57.998 79.4623 59.4336 77.6811 60.4531C75.8998 61.4727 73.8901 61.9883 71.6518 62H63.7241ZM68.9975 40.6777V57.7637H71.5463C73.6088 57.7637 75.185 57.0898 76.2748 55.7422C77.3647 54.3945 77.9213 52.4668 77.9448 49.959V48.6055C77.9448 46.0039 77.4057 44.0352 76.3276 42.6992C75.2495 41.3516 73.6733 40.6777 71.5991 40.6777H68.9975ZM82.9433 59.5039C82.9433 58.6953 83.2128 58.0391 83.7519 57.5352C84.3027 57.0312 84.9882 56.7793 85.8085 56.7793C86.6405 56.7793 87.3261 57.0312 87.8652 57.5352C88.4159 58.0391 88.6913 58.6953 88.6913 59.5039C88.6913 60.3008 88.4218 60.9512 87.8827 61.4551C87.3437 61.9473 86.6523 62.1934 85.8085 62.1934C84.9765 62.1934 84.2909 61.9473 83.7519 61.4551C83.2128 60.9512 82.9433 60.3008 82.9433 59.5039Z" fill="white"/>
</svg>
